<?xml version="1.0" encoding="UTF-8"?>
<svg width="16px" height="14px" viewBox="0 0 16 14" version="1.1" xmlns="http://www.w3.org/2000/svg" xmlns:xlink="http://www.w3.org/1999/xlink">
    <g id="Sub-Navigation" stroke="none" stroke-width="1" fill="none" fill-rule="evenodd">
        <g id="SubNav---Features-(centered)" transform="translate(-1217.000000, -139.000000)" fill="#FFF">
            <g id="TopNav" transform="translate(210.000000, 127.000000)">
                <g id="Centered" transform="translate(389.000000, 10.000000)">
                    <g id="contact" transform="translate(618.000000, 0.000000)">
                        <path d="M0.228147688,7.47222007 L14.7543933,2.02486697 C15.0362486,1.91920425 15.3237392,2.166455 15.2613982,2.46098981 L12.5663827,15.1909693 C12.5155765,15.4308236 12.2465768,15.5525119 12.032874,15.4322325 L8.23773352,13.2964368 C8.08408233,13.2098815 7.89186424,13.2349764 7.76550925,13.3579854 L6.82273369,14.2754899 C6.63579874,14.457494 6.32268491,14.3774544 6.24590333,14.1282666 L5.54227772,11.8453356 C5.50098121,11.7114962 5.5375229,11.5658577 5.63702195,11.4672392 L12.3178992,4.84747023 L4.15536656,10.2620679 C4.03130093,10.3442207 3.87104581,10.3474786 3.7438103,10.2703448 L0.169240726,8.10188178 C-0.0816201643,7.94963942 -0.0466634169,7.57524121 0.228147688,7.47222007" id="Fill-1"></path>
                    </g>
                </g>
            </g>
        </g>
    </g>
</svg>
